<svg version="1.1" id="Layer_1" xmlns="http://www.w3.org/2000/svg" xmlns:xlink="http://www.w3.org/1999/xlink" x="0px" y="0px"
	 width="1600px" height="1102px" viewBox="0 0 1600 1102" >
<polygon fill="#403C3B" points="1600,1098.861 0,760.688 0,-2.191 1600,-2.191 "/>
<g>
	<path fill="#3B3736" d="M920.764,517.491c-33.726,83.989-98.758,136.976-145.179,118.298
		c-46.442-18.653-56.719-101.889-22.994-185.921c33.704-84.033,98.736-136.974,145.265-118.32
		C944.276,350.247,954.575,433.479,920.764,517.491z"/>
	<path fill="#3B3736" d="M1561.311,373.542c-1.123-17.468-4.663-34.74-10.299-51.667c-7.448-21.656-19.583-40.98-36.575-58.015
		c-20.101-20.858-44.673-36.684-73.647-47.501c-29.105-10.839-58.923-18.137-89.885-22.066c-14.66-1.49-29.256-2.721-43.376-3.455
		c-14.445-0.777-28.156-1.167-41.196-1.167c-25.456,0-50.373,2.311-75.009,6.197c-0.949,1.533-2.267,2.958-3.281,4.426
		c-0.107,0.129-0.303,0.388-0.411,0.583c-3.194,4.123-6.585,8.312-10.882,12.241c-19.475,19.433-44.262,31.308-69.113,36.145
		c-0.476,0.065-0.906,0.259-1.403,0.324c-0.043,0-0.193,0-0.193,0c-50.524,9.263-100.918-10.428-108.95-55.921
		c77.146-16.042,74.015-60.65,67.861-71.834c-14.553-26.774-151.376-34.266-238.863,139.651c-2.246,4.21-4.405,8.421-6.306,12.567
		c-3.907,8.162-7.255,16.02-10.083,23.771c0,0.064-0.064,0.194-0.064,0.194c0.26-0.129,0.41-0.129,0.647-0.194
		c16.798-6.975,34.546-12.415,53.137-16.301c18.826-3.887,37.741-5.894,56.914-5.894c23.729,0,46.443,3.52,68.358,10.126
		c4.404,1.402,8.831,2.698,13.214,4.274c22.001,8.206,40.807,21.16,57.108,38.218c2.72,2.979,5.678,5.873,8.355,9.132
		c12.026,15.653,20.923,31.825,26.665,48.494c5.636,16.604,8.442,33.532,8.442,50.61c0,0.733,0,1.511,0,2.569
		c0,1.167,0,2.333,0,3.801c-2.116,36.834-14.185,72.545-36.208,106.983c-15.762,24.767-34.309,45.514-55.339,62.333
		c29.623,15.245,61.578,25.824,96.492,30.898c13.105,2.396,26.6,4.103,40.548,5.31c14.012,1.061,27.766,1.664,41.778,1.664
		c3.152,0,6.37,0,9.89,0c3.303,0,6.693,0,9.802,0c39.448-1.577,78.42-7.318,117.133-17.294
		c38.647-10.128,75.008-25.198,109.058-45.321c33.271-20.834,60.821-45.038,82.824-72.439c14.919-18.48,25.369-38.087,32.344-58.467
		C1559.821,432.919,1562.196,390.427,1561.311,373.542z M1313.659,454.66c-32.775,90.684-96.686,153.753-142.848,140.774
		c-46.054-12.975-56.913-97.073-24.226-187.777c32.712-90.706,96.687-153.709,142.826-140.754
		C1335.553,279.924,1346.457,363.956,1313.659,454.66z"/>
	<path fill="#3B3736" d="M683.865,227.37c-13.235-50.978-61.578-72.74-138.4-81.355c-8.312-1.253-16.647-2.159-25.002-2.764
		c-14.121-1.057-26.989-1.641-38.324-1.641c-12.761,0-27.185,0.669-43.183,2.095c-15.87,1.49-32.431,3.907-49.509,7.492
		c-29.018,5.7-56.525,15.805-82.435,30.357c-1.425,0.777-2.505,1.814-3.801,2.591c-4.943,3.022-9.629,6.088-13.688,9.219
		c-0.043,0.109-0.151,0.174-0.324,0.303c-28.413,22.174-33.941,46.399-34.74,61.298c0,0.172-0.194,0.388-0.194,0.388
		c0,1.641,0,3.001,0,4.426c0,1.167,0,2.31,0.108,3.563H254.2c0,24.225,12.781,57.518,54.021,67.17
		c37.46,8.766,76.499-8.572,103.292-32.883c-17.576-5.528-30.206-21.851-30.206-41.196c0-9.652,3.173-18.526,8.551-25.738
		c14.487-22.714,44.715-35.539,75.137-35.539c1.879,0,3.757,0.107,5.614,0.237c53.805,1.555,56.806,51.69,48.73,83.709
		c-4.058,16.15-10.773,36.728-28.111,55.296c-33.337,39.706-90.662,59.548-159.56,71.444
		c54.086,10.191,180.913,60.458,134.708,197.67c-41.368,122.725-137.341,136.132-188.082,127.885
		c-9.953-1.6-23.556-6.674-32.344-11.38c-13.213-7.083-22.973-16.214-27.032-27.595c-3.324-7.188-5.247-15.069-5.247-23.468
		c0-26.729,18.764-49.034,43.809-54.582c-10.688-30.984-64.191-64.644-117.025-40.095c-8.506,3.261-16.732,7.534-24.613,12.955
		c-17.035,11.703-27.68,27.853-31.999,48.408c-0.626,3.562-1.144,7.341-1.511,11.183c-0.345,3.93-0.626,7.645-0.626,11.229
		c0,34.739,14.208,61.232,42.686,79.325c28.307,18.115,59.614,30.746,93.685,37.785c13.474,2.827,26.817,4.772,39.944,5.873
		c13.063,1.08,25.348,1.555,36.684,1.555c19.972,0,41.736-1.448,65.529-4.275c23.729-2.784,48.084-7.407,72.914-13.84
		c53.934-14.122,104.005-37.461,150.189-69.762c28.456-19.929,48.58-44.132,60.52-72.869
		c-21.268-16.087-43.896-49.554-59.678-91.396c-15.784-41.888-20.728-81.938-15.309-108.063
		c-15.006-7.881-31.286-13.883-48.407-17.922h0.086c-1.145-0.194-2.094-0.647-3.238-0.864c0.798-0.258,1.662-0.453,2.482-0.648
		v0.346c56.007-9.889,101.716-32.43,131.253-62.183c12.221-11.141,21.354-24.355,27.42-39.599
		c6.025-13.559,9.155-27.917,9.155-42.793c0-0.713,0-1.599,0-2.635c0-1.079,0-1.944,0-2.678
		C687.622,243.996,686.369,235.316,683.865,227.37z"/>
</g>
</svg>
