<?xml version="1.0" encoding="utf-8"?>
<!-- Generator: Adobe Illustrator 16.0.0, SVG Export Plug-In . SVG Version: 6.00 Build 0)  -->
<!DOCTYPE svg PUBLIC "-//W3C//DTD SVG 1.1//EN" "http://www.w3.org/Graphics/SVG/1.1/DTD/svg11.dtd">
<svg version="1.1" id="Layer_1" xmlns="http://www.w3.org/2000/svg" xmlns:xlink="http://www.w3.org/1999/xlink" x="0px" y="0px"
	 width="2500px" height="1102px" viewBox="0 0 2500 1102" enable-background="new 0 0 2500 1102" xml:space="preserve">
<polygon fill="#403C3B" points="2500,780 0,251.604 0,0 2500,0 "/>
<g>
	<path fill="#3B3736" d="M1382.787,412.897c-45.296,112.804-132.64,183.97-194.985,158.884
		c-62.377-25.054-76.179-136.845-30.884-249.707c45.269-112.864,132.609-183.966,195.102-158.914
		C1414.366,188.276,1428.198,300.062,1382.787,412.897z"/>
	<path fill="#3B3736" d="M2243.09,219.563c-1.508-23.46-6.261-46.66-13.833-69.393c-10.002-29.085-26.301-55.04-49.121-77.919
		c-26.999-28.015-60.001-49.27-98.914-63.797c-39.089-14.557-79.138-24.358-120.721-29.637c-19.689-2.001-39.293-3.654-58.258-4.64
		c-19.401-1.043-37.815-1.566-55.33-1.566c-34.188,0-67.652,3.103-100.741,8.323c-1.274,2.058-3.045,3.973-4.406,5.943
		c-0.145,0.174-0.406,0.522-0.553,0.784c-4.287,5.538-8.843,11.165-14.616,16.441c-26.153,26.1-59.444,42.048-92.823,48.545
		c-0.639,0.088-1.217,0.348-1.884,0.436c-0.058,0-0.26,0-0.26,0c-67.857,12.44-135.54-14.005-146.328-75.106
		c103.613-21.546,99.406-81.457,91.142-96.48c-19.546-35.959-203.309-46.022-320.812,187.562c-3.017,5.655-5.917,11.31-8.468,16.879
		c-5.249,10.962-9.745,21.515-13.543,31.925c0,0.086-0.085,0.262-0.085,0.262c0.351-0.174,0.55-0.174,0.869-0.262
		c22.562-9.368,46.398-16.674,71.367-21.892c25.285-5.221,50.688-7.916,76.439-7.916c31.871,0,62.378,4.727,91.811,13.6
		c5.914,1.883,11.862,3.624,17.749,5.739c29.549,11.021,54.807,28.42,76.698,51.33c3.654,4.001,7.628,7.888,11.222,12.265
		c16.151,21.022,28.103,42.744,35.815,65.132c7.568,22.301,11.338,45.037,11.338,67.973c0,0.986,0,2.03,0,3.451
		c0,1.566,0,3.133,0,5.104c-2.843,49.471-19.052,97.433-48.632,143.687c-21.17,33.265-46.079,61.129-74.324,83.718
		c39.786,20.476,82.705,34.685,129.597,41.498c17.601,3.219,35.726,5.511,54.459,7.132c18.818,1.426,37.293,2.235,56.112,2.235
		c4.23,0,8.556,0,13.282,0c4.436,0,8.989,0,13.164,0c52.98-2.118,105.323-9.829,157.318-23.228
		c51.905-13.603,100.742-33.843,146.473-60.87c44.686-27.981,81.686-60.489,111.239-97.291
		c20.036-24.822,34.073-51.155,43.44-78.527C2241.089,299.311,2244.28,242.24,2243.09,219.563z M1910.474,328.511
		c-44.019,121.795-129.856,206.501-191.856,189.07c-61.852-17.426-76.438-130.376-32.537-252.198
		c43.934-121.824,129.859-206.442,191.826-189.043C1939.88,93.826,1954.525,206.688,1910.474,328.511z"/>
	<path fill="#3B3736" d="M1064.615,23.243c-17.776-68.466-82.705-97.695-185.882-109.265c-11.163-1.683-22.357-2.901-33.579-3.713
		c-18.966-1.42-36.249-2.206-51.474-2.206c-17.139,0-36.51,0.898-57.998,2.814c-21.314,2.001-43.557,5.247-66.494,10.062
		c-38.974,7.656-75.917,21.228-110.716,40.772c-1.915,1.043-3.365,2.436-5.104,3.48c-6.64,4.059-12.933,8.176-18.385,12.381
		c-0.058,0.147-0.203,0.235-0.436,0.407c-38.159,29.781-45.584,62.317-46.658,82.328c0,0.231-0.26,0.521-0.26,0.521
		c0,2.204,0,4.031,0,5.944c0,1.567,0,3.103,0.145,4.786h-0.232c0,32.536,17.166,77.25,72.553,90.213
		c50.312,11.774,102.745-11.512,138.729-44.164c-23.604-7.424-40.568-29.348-40.568-55.328c0-12.964,4.262-24.882,11.485-34.569
		c19.458-30.507,60.055-47.732,100.914-47.732c2.524,0,5.045,0.144,7.541,0.317c72.262,2.089,76.294,69.424,65.446,112.428
		c-5.45,21.691-14.467,49.329-37.755,74.267c-44.774,53.328-121.764,79.978-214.301,95.953
		c72.641,13.688,242.981,81.2,180.924,265.486c-55.561,164.828-184.46,182.836-252.609,171.76
		c-13.368-2.147-31.638-8.963-43.441-15.287c-17.747-9.51-30.855-21.773-36.307-37.059c-4.464-9.653-7.046-20.238-7.046-31.52
		c0-35.899,25.201-65.857,58.839-73.309c-14.355-41.614-86.213-86.823-157.175-53.851c-11.423,4.38-22.471,10.118-33.057,17.399
		c-22.88,15.717-37.176,37.407-42.977,65.014c-0.841,4.785-1.535,9.861-2.03,15.02c-0.464,5.278-0.841,10.269-0.841,15.082
		c0,46.658,19.083,82.239,57.331,106.541c38.019,24.331,80.065,41.294,125.826,50.748c18.096,3.797,36.018,6.409,53.648,7.888
		c17.545,1.451,34.044,2.089,49.27,2.089c26.824,0,56.056-1.947,88.012-5.743c31.869-3.739,64.58-9.946,97.929-18.587
		c72.436-18.969,139.686-50.314,201.713-93.696c38.22-26.768,65.248-59.272,81.284-97.869
		c-28.565-21.606-58.958-66.555-80.154-122.751c-21.2-56.26-27.838-110.049-20.561-145.137
		c-20.153-10.584-42.02-18.645-65.013-24.07h0.115c-1.537-0.262-2.812-0.87-4.349-1.162c1.073-0.347,2.232-0.608,3.333-0.87v0.464
		c75.222-13.282,136.613-43.557,176.285-83.516c16.413-14.964,28.681-32.711,36.827-53.186c8.093-18.21,12.295-37.494,12.295-57.475
		c0-0.957,0-2.147,0-3.539c0-1.449,0-2.61,0-3.597C1069.66,45.573,1067.978,33.915,1064.615,23.243z"/>
</g>
</svg>
