<?xml version="1.0" encoding="utf-8"?>
<!-- Generator: Adobe Illustrator 16.0.4, SVG Export Plug-In . SVG Version: 6.00 Build 0)  -->
<!DOCTYPE svg PUBLIC "-//W3C//DTD SVG 1.1//EN" "http://www.w3.org/Graphics/SVG/1.1/DTD/svg11.dtd">
<svg version="1.1" id="Layer_1" xmlns="http://www.w3.org/2000/svg" xmlns:xlink="http://www.w3.org/1999/xlink" x="0px" y="0px"
	 width="128px" height="128px" viewBox="0 0 128 128" enable-background="new 0 0 128 128" xml:space="preserve">
<g>
	<path fill="#202020" d="M107,94.828L91.172,79H50c-2.757,0-5-2.243-5-5V31c0-2.757,2.243-5,5-5h60c2.757,0,5,2.243,5,5v43
		c0,2.757-2.243,5-5,5h-3V94.828z M50,30c-0.552,0-1,0.449-1,1v43c0,0.552,0.448,1,1,1h42.828L103,85.172V75h7c0.552,0,1-0.448,1-1
		V31c0-0.551-0.448-1-1-1H50z"/>
</g>
<g>
	<path fill="#202020" d="M19,116.828V101h-2.998C13.244,101,11,98.757,11,96V53c0-2.757,2.244-5,5.002-5h60
		C78.758,48,81,50.243,81,53v43c0,2.757-2.242,5-4.998,5H34.83L19,116.828z M16.002,52C15.449,52,15,52.449,15,53v43
		c0,0.552,0.449,1,1.002,1H23v10.172L33.174,97h42.828C76.553,97,77,96.552,77,96V53c0-0.551-0.447-1-0.998-1H16.002z"/>
</g>
<g>
	<path fill-rule="evenodd" clip-rule="evenodd" fill="#EA4226" d="M76.002,50H47v24c0,1.657,1.343,3,3,3h29V53
		C79,51.343,77.659,50,76.002,50z"/>
	<path fill="#202020" d="M81,79H50c-2.757,0-5-2.243-5-5V48h31.002C78.758,48,81,50.243,81,53V79z M49,52v22c0,0.552,0.448,1,1,1h27
		V53c0-0.551-0.447-1-0.998-1H49z"/>
</g>
</svg>
