<?xml version="1.0" encoding="utf-8"?>
<!-- Generator: Adobe Illustrator 16.0.4, SVG Export Plug-In . SVG Version: 6.00 Build 0)  -->
<!DOCTYPE svg PUBLIC "-//W3C//DTD SVG 1.1//EN" "http://www.w3.org/Graphics/SVG/1.1/DTD/svg11.dtd">
<svg version="1.1" id="Layer_1" xmlns="http://www.w3.org/2000/svg" xmlns:xlink="http://www.w3.org/1999/xlink" x="0px" y="0px"
	 width="128px" height="128px" viewBox="0 0 128 128" enable-background="new 0 0 128 128" xml:space="preserve">
<g>
	<path fill="#FFFFFF" d="M30.498,63.553h-4c0-20.662,16.811-37.473,37.474-37.473c16.965,0,31.859,11.438,36.219,27.813
		l-3.865,1.029C92.431,40.296,79.127,30.08,63.972,30.08C45.515,30.08,30.498,45.096,30.498,63.553z"/>
</g>
<g>
	<g>
		<path fill="#FFFFFF" d="M63.972,101.025c-17.09,0-32.009-11.541-36.281-28.065l3.873-1.002
			c3.815,14.76,17.142,25.067,32.408,25.067c18.458,0,33.475-15.016,33.475-33.473h4C101.446,84.215,84.635,101.025,63.972,101.025z
			"/>
	</g>
	<g>
		<polygon fill="#EA4226" points="62.386,83.067 52.909,56.581 48.957,65.553 28.498,65.553 28.498,61.553 46.348,61.553 
			53.294,45.784 62.188,70.644 73.227,36.416 80.89,61.553 99.446,61.553 99.446,65.553 77.927,65.553 73.119,49.781 		"/>
	</g>
	<g>
		<polygon fill="#EA4226" points="62.386,83.067 52.909,56.581 48.957,65.553 26.516,65.553 26.516,61.553 46.348,61.553 
			53.294,45.784 62.188,70.644 73.227,36.416 80.89,61.553 101.415,61.553 101.415,65.553 77.927,65.553 73.119,49.781 		"/>
	</g>
</g>
</svg>
