<?xml version="1.0" encoding="utf-8"?>
<!-- Generator: Adobe Illustrator 16.0.4, SVG Export Plug-In . SVG Version: 6.00 Build 0)  -->
<!DOCTYPE svg PUBLIC "-//W3C//DTD SVG 1.1//EN" "http://www.w3.org/Graphics/SVG/1.1/DTD/svg11.dtd">
<svg version="1.1" id="Layer_1" xmlns="http://www.w3.org/2000/svg" xmlns:xlink="http://www.w3.org/1999/xlink" x="0px" y="0px"
	 width="128px" height="128px" viewBox="0 0 128 128" enable-background="new 0 0 128 128" xml:space="preserve">
<path fill="#231F20" d="M50.268,60.189l3.403,0.793c0.13,2.316,0.834,4.575,2.084,6.6c1.976,3.2,5.076,5.431,8.727,6.28
	c1.044,0.244,2.114,0.368,3.18,0.368c0.039,0,0.078,0,0.117,0l1.019,3.357c-5.067,3.34-7.58,9.723-5.739,15.797
	c0.321,1.054,0.764,2.062,1.316,3.006l-2.409,2.571c-1.94-0.971-4.09-1.484-6.302-1.484c-3.863,0-7.588,1.612-10.223,4.427
	c-0.75,0.803-1.4,1.688-1.939,2.634l-3.443-0.802c-0.379-6.042-4.649-11.392-10.803-12.824c-1.044-0.243-2.114-0.367-3.18-0.367
	c-0.029,0-0.058,0-0.087,0l-1.023-3.373c5.05-3.347,7.552-9.723,5.715-15.774c-0.323-1.064-0.771-2.083-1.331-3.035L31.75,65.8
	c1.946,0.979,4.105,1.498,6.328,1.498c3.863,0,7.588-1.612,10.22-4.423C49.062,62.059,49.723,61.156,50.268,60.189 M47.827,55.515
	c-0.376,1.68-1.19,3.282-2.449,4.625c-1.965,2.099-4.627,3.158-7.301,3.158c-2.472,0-4.954-0.905-6.907-2.73l-7.085,7.565
	c1.258,1.165,2.235,2.668,2.768,4.425c1.604,5.284-1.396,10.878-6.705,12.513l3.009,9.915c0.934-0.288,1.917-0.44,2.92-0.44
	c0.75,0,1.51,0.085,2.271,0.263c5.377,1.252,8.718,6.643,7.485,12.052l10.092,2.35c0.383-1.66,1.194-3.24,2.439-4.573
	c1.964-2.099,4.625-3.158,7.3-3.158c2.462,0,4.936,0.898,6.887,2.711l7.084-7.562c-1.249-1.161-2.218-2.658-2.749-4.405
	c-1.605-5.297,1.408-10.899,6.732-12.521l-3.009-9.919c-0.941,0.294-1.935,0.45-2.947,0.45c-0.749,0-1.51-0.085-2.27-0.263
	c-5.393-1.256-8.738-6.675-7.474-12.104L47.827,55.515L47.827,55.515z"/>
<path fill="#231F20" d="M74.172,21.414c2.626,3.301,6.629,5.294,10.992,5.294c1.811,0,3.583-0.348,5.255-1.03
	c1.039-0.419,2.021-0.962,2.924-1.613l2.763,2.146c-2.217,5.657-0.585,12.324,4.431,16.221c0.879,0.684,1.832,1.256,2.838,1.708
	l-0.479,3.476c-6.053,0.924-10.966,5.751-11.819,11.943c-0.151,1.093-0.173,2.196-0.065,3.286l-3.262,1.328
	c-2.626-3.287-6.622-5.272-10.972-5.272c-1.811,0-3.583,0.349-5.264,1.034c-1.02,0.414-1.982,0.945-2.87,1.58l-2.791-2.169
	c2.185-5.646,0.544-12.291-4.446-16.166c-0.871-0.678-1.817-1.247-2.816-1.699l0.482-3.494c6.04-0.933,10.939-5.755,11.792-11.94
	c0.152-1.101,0.172-2.212,0.061-3.31L74.172,21.414 M75.837,16.418l-9.6,3.907c0.657,1.586,0.916,3.356,0.665,5.174
	c-0.692,5.02-5.009,8.651-9.966,8.651c-0.449,0-0.903-0.029-1.36-0.091L54.16,44.325c1.692,0.229,3.35,0.892,4.79,2.012
	c4.359,3.386,5.14,9.68,1.757,14.076l8.183,6.358c1.044-1.352,2.44-2.445,4.129-3.131c1.231-0.502,2.505-0.74,3.759-0.74
	c3.954,0,7.709,2.366,9.314,6.266l9.598-3.907c-0.648-1.576-0.902-3.34-0.651-5.151c0.692-5.018,5.011-8.651,9.968-8.652
	c0.458,0,0.92,0.031,1.386,0.095l1.413-10.266c-1.703-0.222-3.365-0.885-4.814-2.011c-4.374-3.398-5.146-9.719-1.727-14.121
	l-8.183-6.356c-1.044,1.368-2.453,2.484-4.159,3.173c-1.23,0.502-2.505,0.739-3.758,0.739
	C81.201,22.708,77.438,20.333,75.837,16.418L75.837,16.418z"/>
<path fill="#EB4325" d="M91.585,40.201h-7.97l2.979-2.979c-1.505-1.506-3.506-2.334-5.635-2.334s-4.131,0.828-5.635,2.334
	c-1.507,1.505-2.335,3.507-2.335,5.636c0,2.128,0.828,4.13,2.335,5.635c1.504,1.506,3.506,2.335,5.635,2.335s4.13-0.829,5.635-2.335
	c0.126-0.126,0.248-0.255,0.363-0.387l1.999,1.749c-1.949,2.223-4.808,3.629-7.997,3.629c-5.868,0-10.626-4.757-10.626-10.626
	c0-5.87,4.758-10.627,10.626-10.627c2.935,0,5.592,1.189,7.513,3.112l3.113-3.112V40.201z"/>
<path fill="#EB4325" d="M56.748,77.459l-6.053,5.185l4.199,0.325c-0.164,2.12-1.144,4.055-2.761,5.438
	c-1.616,1.384-3.675,2.057-5.798,1.893c-2.122-0.161-4.053-1.145-5.438-2.762c-1.385-1.615-2.058-3.675-1.892-5.796
	c0.163-2.124,1.144-4.058,2.759-5.441c1.619-1.384,3.677-2.057,5.799-1.893c0.175,0.017,0.354,0.032,0.526,0.058l0.381-2.629
	c-2.925-0.418-6.013,0.373-8.435,2.447c-4.456,3.818-4.977,10.525-1.158,14.982c3.82,4.458,10.528,4.975,14.983,1.158
	c2.23-1.91,3.474-4.542,3.682-7.25l4.389,0.338L56.748,77.459z"/>
</svg>
