<?xml version="1.0" encoding="utf-8"?>
<!-- Generator: Adobe Illustrator 16.0.4, SVG Export Plug-In . SVG Version: 6.00 Build 0)  -->
<!DOCTYPE svg PUBLIC "-//W3C//DTD SVG 1.1//EN" "http://www.w3.org/Graphics/SVG/1.1/DTD/svg11.dtd">
<svg version="1.1" id="Layer_1" xmlns="http://www.w3.org/2000/svg" xmlns:xlink="http://www.w3.org/1999/xlink" x="0px" y="0px"
	 width="128px" height="128px" viewBox="0 0 128 128" enable-background="new 0 0 128 128" xml:space="preserve">
<g>
	<polygon fill="#FFFFFF" points="50,90 46,90 46,78 28,78 28,13 68,13 68,32 64,32 64,17 32,17 32,74 50,74 	"/>
</g>
<g>
	<path fill="#FFFFFF" d="M48,105c-4.962,0-9-4.037-9-9s4.038-9,9-9s9,4.037,9,9S52.962,105,48,105z M48,91c-2.757,0-5,2.243-5,5
		s2.243,5,5,5s5-2.243,5-5S50.757,91,48,91z"/>
</g>
<g>
	<path fill="#FFFFFF" d="M71,105c-4.963,0-9-4.037-9-9s4.037-9,9-9s9,4.037,9,9S75.963,105,71,105z M71,91c-2.757,0-5,2.243-5,5
		s2.243,5,5,5s5-2.243,5-5S73.757,91,71,91z"/>
</g>
<g>
	<path fill="#FFFFFF" d="M94,105c-4.963,0-9-4.037-9-9s4.037-9,9-9s9,4.037,9,9S98.963,105,94,105z M94,91c-2.757,0-5,2.243-5,5
		s2.243,5,5,5s5-2.243,5-5S96.757,91,94,91z"/>
</g>
<g>
	<polygon fill="#FFFFFF" points="96,116 18,116 18,50 46,50 46,54 22,54 22,112 92,112 92,102 96,102 	"/>
</g>
<g>
	<polygon fill="#FFFFFF" points="73,90 69,90 69,74 105,74 105,54 87,54 87,50 109,50 109,78 73,78 	"/>
</g>
<g>
	<polygon fill="#FFFFFF" points="66.5,34.328 57.586,25.414 60.414,22.586 66.5,28.672 72.586,22.586 75.414,25.414 	"/>
</g>
<g>
	<polygon fill="#FFFFFF" points="90.836,60.664 81.922,51.75 90.836,42.836 93.664,45.664 87.578,51.75 93.664,57.836 	"/>
</g>
<g>
	<polygon fill="#FFFFFF" points="42.164,60.664 39.336,57.836 45.421,51.75 39.336,45.664 42.164,42.836 51.079,51.75 	"/>
</g>
<g>
	
		<rect x="52.961" y="49.75" transform="matrix(0.7071 0.7071 -0.7071 0.7071 56.1434 -32.0421)" fill="#EA4226" width="27.577" height="4"/>
</g>
<g>
	
		<rect x="64.75" y="37.961" transform="matrix(0.7071 0.7071 -0.7071 0.7071 56.1434 -32.0421)" fill="#EA4226" width="4" height="27.577"/>
</g>
</svg>
