<?xml version="1.0" encoding="utf-8"?>
<!-- Generator: Adobe Illustrator 16.0.4, SVG Export Plug-In . SVG Version: 6.00 Build 0)  -->
<!DOCTYPE svg PUBLIC "-//W3C//DTD SVG 1.1//EN" "http://www.w3.org/Graphics/SVG/1.1/DTD/svg11.dtd">
<svg version="1.1" id="Layer_1" xmlns="http://www.w3.org/2000/svg" xmlns:xlink="http://www.w3.org/1999/xlink" x="0px" y="0px"
	 width="128px" height="128px" viewBox="0 0 128 128" enable-background="new 0 0 128 128" xml:space="preserve">
<g>
	<path fill="#FFFFFF" d="M33.168,106.361L22.562,95.755L91.767,26.55l15.297-4.744l-4.688,15.348L33.168,106.361z M26.805,95.755
		l6.364,6.364l66.557-66.558l2.812-9.211l-9.174,2.846L26.805,95.755z"/>
</g>
<g>
	
		<rect x="30.143" y="91.073" transform="matrix(0.7071 0.7071 -0.7071 0.7071 75.9014 1.9116)" fill="#FFFFFF" width="11" height="3"/>
</g>
<g>
	<polygon fill="#FFFFFF" points="37.796,93.824 35.672,91.706 91.213,36 100,36 100,39 92.459,39 	"/>
</g>
<g>
	<rect x="90" y="29" fill="#FFFFFF" width="3" height="8"/>
</g>
<g>
	<g>
		<polygon fill="#1F201F" points="59.094,52.516 46.097,39.162 43.751,41.447 56.78,54.83 		"/>
	</g>
	<g>
		<polygon fill="#1F201F" points="54.804,56.807 41.42,43.778 39.137,46.124 52.489,59.121 		"/>
	</g>
</g>
<g>
	<g>
		<polygon fill="#1F201F" points="76.503,70.4 75.695,69.571 73.381,71.885 74.189,72.716 101.399,100.667 100.642,101.427 
			72.688,74.216 71.858,73.408 69.545,75.722 70.374,76.528 100.675,106.021 105.995,100.7 		"/>
	</g>
</g>
<g>
	<g>
		<path fill="#EA4226" d="M37.02,47.218c-2.717,0-5.271-1.058-7.192-2.979c-3.729-3.729-6.484-14.97-6.315-19.133l0.15-3.73
			l2.641,2.641c3.634,3.635,7.486,3.752,10.883,3.854c2.676,0.083,5.203,0.16,7.026,1.982c3.965,3.967,3.965,10.418,0.001,14.387
			C42.291,46.16,39.737,47.218,37.02,47.218z M27.13,28.8c0.779,4.474,2.755,10.869,5.012,13.127
			c1.303,1.302,3.035,2.019,4.878,2.019s3.576-0.717,4.88-2.019c2.689-2.692,2.689-7.07,0-9.761
			c-0.906-0.905-2.63-0.958-4.812-1.023C34.301,31.058,30.716,30.949,27.13,28.8z"/>
	</g>
</g>
</svg>
