<?xml version="1.0" encoding="utf-8"?>
<!-- Generator: Adobe Illustrator 16.0.4, SVG Export Plug-In . SVG Version: 6.00 Build 0)  -->
<!DOCTYPE svg PUBLIC "-//W3C//DTD SVG 1.1//EN" "http://www.w3.org/Graphics/SVG/1.1/DTD/svg11.dtd">
<svg version="1.1" id="Layer_1" xmlns="http://www.w3.org/2000/svg" xmlns:xlink="http://www.w3.org/1999/xlink" x="0px" y="0px"
	 width="128px" height="128px" viewBox="0 0 128 128" enable-background="new 0 0 128 128" xml:space="preserve">
<path fill="#202020" d="M108.082,106.586L82.649,81.153c4.984-5.645,8.019-13.049,8.019-21.153c0-17.645-14.355-32-32-32
	s-32,14.355-32,32c0,17.645,14.355,32,32,32c8.104,0,15.509-3.034,21.154-8.019l25.433,25.433L108.082,106.586z M30.667,60
	c0-15.439,12.561-28,28-28c15.44,0,28,12.561,28,28s-12.561,28-28,28C43.228,88,30.667,75.439,30.667,60z"/>
</svg>
