<?xml version="1.0" encoding="utf-8"?>
<!-- Generator: Adobe Illustrator 16.0.4, SVG Export Plug-In . SVG Version: 6.00 Build 0)  -->
<!DOCTYPE svg PUBLIC "-//W3C//DTD SVG 1.1//EN" "http://www.w3.org/Graphics/SVG/1.1/DTD/svg11.dtd">
<svg version="1.1" id="Layer_1" xmlns="http://www.w3.org/2000/svg" xmlns:xlink="http://www.w3.org/1999/xlink" x="0px" y="0px"
	 width="128px" height="128px" viewBox="0 0 128 128" enable-background="new 0 0 128 128" xml:space="preserve">
<g>
	<path fill="#202020" d="M98,95H38V19h60V95z M42,91h52V23H42V91z"/>
</g>
<g>
	<polygon fill="#202020" points="85,104 29,104 29,31 39,31 39,35 33,35 33,100 81,100 81,94 85,94 	"/>
</g>
<g>
	<rect x="50" y="79" fill="#202020" width="36" height="4"/>
</g>
<g>
	<rect x="66" y="71" fill="#202020" width="20" height="4"/>
</g>
<g>
	<rect x="66" y="63" fill="#202020" width="20" height="4"/>
</g>
<g>
	<rect x="50" y="55" fill="#202020" width="36" height="4"/>
</g>
<g>
	<rect x="50" y="47" fill="#202020" width="18" height="4"/>
</g>
<g>
	<rect x="50" y="39" fill="#202020" width="18" height="4"/>
</g>
<g>
	<rect x="50" y="31" fill="#202020" width="18" height="4"/>
</g>
<g>
	<rect x="73" y="33" fill-rule="evenodd" clip-rule="evenodd" fill="#EA4226" width="11" height="16"/>
	<path fill="#EA4226" d="M86,51H71V31h15V51z M75,47h7V35h-7V47z"/>
</g>
<g>
	<path fill="#EA4226" d="M62,75H50V63h12V75z M54,71h4v-4h-4V71z"/>
</g>
</svg>
