<?xml version="1.0" encoding="utf-8"?>
<!-- Generator: Adobe Illustrator 16.0.4, SVG Export Plug-In . SVG Version: 6.00 Build 0)  -->
<!DOCTYPE svg PUBLIC "-//W3C//DTD SVG 1.1//EN" "http://www.w3.org/Graphics/SVG/1.1/DTD/svg11.dtd">
<svg version="1.1" id="Layer_1" xmlns="http://www.w3.org/2000/svg" xmlns:xlink="http://www.w3.org/1999/xlink" x="0px" y="0px"
	 width="128px" height="128px" viewBox="0 0 128 128" enable-background="new 0 0 128 128" xml:space="preserve">
<g>
	<path fill="#FFFFFF" d="M58.667,92c-17.645,0-32-14.355-32-32c0-17.645,14.355-32,32-32s32,14.355,32,32
		C90.668,77.645,76.312,92,58.667,92z M58.667,32c-15.439,0-28,12.561-28,28s12.561,28,28,28c15.44,0,28-12.561,28-28
		S74.107,32,58.667,32z"/>
</g>
<g>
	
		<rect x="74.076" y="92.5" transform="matrix(0.7071 0.7071 -0.7071 0.7071 94.1099 -38.2013)" fill="#FFFFFF" width="38.184" height="4"/>
</g>
<g>
	<rect x="45" y="51" fill-rule="evenodd" clip-rule="evenodd" fill="#EA4226" width="27" height="4"/>
</g>
<g>
	<rect x="45" y="58" fill-rule="evenodd" clip-rule="evenodd" fill="#EA4226" width="32" height="4"/>
</g>
<g>
	<rect x="45" y="65" fill-rule="evenodd" clip-rule="evenodd" fill="#EA4226" width="23" height="4"/>
</g>
</svg>
