<?xml version="1.0" encoding="utf-8"?>
<!-- Generator: Adobe Illustrator 16.0.4, SVG Export Plug-In . SVG Version: 6.00 Build 0)  -->
<!DOCTYPE svg PUBLIC "-//W3C//DTD SVG 1.1//EN" "http://www.w3.org/Graphics/SVG/1.1/DTD/svg11.dtd">
<svg version="1.1" id="Layer_1" xmlns="http://www.w3.org/2000/svg" xmlns:xlink="http://www.w3.org/1999/xlink" x="0px" y="0px"
	 width="20px" height="32px" viewBox="0 0 20 32" enable-background="new 0 0 20 32" xml:space="preserve">
<g>
	<g>
		<path fill="#FEC130" d="M18,8l-0.003,2c0.001,0.001,0.003,0.002,0.004,0.004L18,18l0.001,11.996
			C18,29.998,17.998,29.999,17.997,30H2.004C2.002,29.999,2.001,29.997,2,29.996V20v-4v-5.996C2.001,10.003,2.002,10.001,2.004,10
			l5.438,0.016V8H2c-1.1,0-2,0.9-2,2v6v4v10c0,1.1,0.9,2,2,2h16c1.1,0,2-0.9,2-2V20v-4v-6C20,8.9,19.1,8,18,8z"/>
	</g>
</g>
<g>
	<g>
		<path fill="#FEC130" d="M18,8h-5.441v2.016L17.996,10c0.002,0.001,0.003,0.003,0.004,0.004V16v4v9.996
			c-0.001,0.001-0.002,0.003-0.004,0.004H2.003C2.002,29.999,2,29.998,1.999,29.996L2,18l-0.001-7.996
			C2,10.002,2.002,10.001,2.003,10L2,8c-1.1,0-2,0.9-2,2v6v4v10c0,1.1,0.9,2,2,2h16c1.1,0,2-0.9,2-2V20v-4v-6C20,8.9,19.1,8,18,8z"
			/>
	</g>
</g>
<path fill="#FEC130" d="M14.856,5.249l-4.075-4.075c-0.092-0.092-0.203-0.165-0.325-0.216c-0.245-0.101-0.52-0.101-0.765,0
	C9.57,1.009,9.459,1.082,9.367,1.174L5.292,5.249c-0.391,0.391-0.391,1.023,0,1.414s1.023,0.391,1.414,0l2.368-2.368v19.512
	c0,0.552,0.448,1,1,1s1-0.448,1-1V4.295l2.368,2.368c0.195,0.195,0.451,0.293,0.707,0.293s0.512-0.098,0.707-0.293
	C15.247,6.272,15.247,5.64,14.856,5.249z"/>
</svg>
